<svg width="157" height="77" viewBox="0 0 157 77" fill="none" xmlns="http://www.w3.org/2000/svg">
<path fill-rule="evenodd" clip-rule="evenodd" d="M70.5619 16.766C69.9249 16.5777 69.2828 16.3989 68.6361 16.2298L68.889 15.2624C69.546 15.4341 70.1982 15.6157 70.8454 15.807L70.5619 16.766ZM74.3517 18.0207C73.7299 17.792 73.1018 17.5727 72.4679 17.3629L72.7822 16.4136C73.4263 16.6268 74.0647 16.8497 74.6968 17.0821L74.3517 18.0207ZM66.6945 15.7547C66.0473 15.607 65.396 15.4689 64.7412 15.3408L64.9333 14.3594C65.5982 14.4895 66.2596 14.6297 66.917 14.7797L66.6945 15.7547ZM78.0529 19.5254C77.4478 19.2548 76.835 18.9934 76.215 18.7415L76.5915 17.8151C77.222 18.0713 77.8454 18.3372 78.4611 18.6125L78.0529 19.5254ZM62.7745 14.9874C62.1181 14.8799 61.4587 14.7823 60.7969 14.6949L60.9279 13.7035C61.6 13.7923 62.2695 13.8914 62.9361 14.0005L62.7745 14.9874ZM81.634 21.2828C81.0518 20.9701 80.4604 20.6665 79.8604 20.3722L80.3008 19.4744C80.9116 19.7741 81.5139 20.0833 82.1071 20.4018L81.634 21.2828ZM58.8121 14.4638C58.1505 14.3972 57.4869 14.3407 56.8218 14.2946L56.891 13.297C57.5665 13.3438 58.2404 13.4012 58.9123 13.4689L58.8121 14.4638ZM85.0719 23.3039C84.5157 22.9464 83.9485 22.5979 83.371 22.2587L83.8775 21.3965C84.4663 21.7423 85.0449 22.0978 85.6125 22.4626L85.0719 23.3039ZM54.8264 14.1875C54.1613 14.1623 53.4952 14.1475 52.8286 14.1434L52.8347 13.1434C53.5121 13.1476 54.1887 13.1626 54.8643 13.1882L54.8264 14.1875ZM87.519 24.987C87.2578 24.7947 86.9936 24.6045 86.7265 24.4166L87.302 23.5988C87.579 23.7937 87.853 23.991 88.124 24.1906L88.1359 24.1994L88.1473 24.2088C88.4232 24.4385 88.6936 24.6681 88.9583 24.8974L88.3036 25.6533C88.0475 25.4314 87.786 25.2093 87.519 24.987ZM50.8314 14.163C50.1662 14.1802 49.5008 14.2082 48.8359 14.2471L48.7775 13.2488C49.4534 13.2093 50.1295 13.1808 50.8055 13.1633L50.8314 14.163ZM46.8442 14.3966C46.1815 14.4574 45.5196 14.5293 44.8591 14.6125L44.7342 13.6203C45.406 13.5358 46.0791 13.4626 46.7528 13.4008L46.8442 14.3966ZM91.3186 28.4987C90.8502 28.0148 90.3575 27.5284 89.8395 27.0402L90.5253 26.3125C91.0543 26.811 91.5579 27.3081 92.0371 27.8032L91.3186 28.4987ZM42.883 14.8957C42.2261 15.0014 41.571 15.1185 40.9181 15.2472L40.7247 14.2661C41.3892 14.1351 42.0558 14.0159 42.7241 13.9084L42.883 14.8957ZM94.0387 31.6124C93.6265 31.0853 93.1867 30.5534 92.7179 30.0177L93.4704 29.3591C93.9511 29.9085 94.4027 30.4545 94.8264 30.9963L94.0387 31.6124ZM118.246 37.9008C117.632 37.7069 117.01 37.5235 116.379 37.3514L116.642 36.3867C117.286 36.5623 117.921 36.7494 118.547 36.9472L118.246 37.9008ZM114.491 36.8763C113.864 36.7315 113.228 36.5979 112.585 36.4758L112.771 35.4933C113.428 35.6178 114.076 35.7542 114.716 35.9019L114.491 36.8763ZM121.905 39.219C121.309 38.9771 120.704 38.7451 120.089 38.5236L120.428 37.5828C121.055 37.8088 121.673 38.0455 122.281 38.2923L121.905 39.219ZM110.662 36.1502C110.026 36.0553 109.383 35.9718 108.732 35.9001L108.842 34.9061C109.505 34.9792 110.161 35.0644 110.809 35.1612L110.662 36.1502ZM125.454 40.8232C124.878 40.5349 124.291 40.2556 123.695 39.986L124.107 39.0748C124.715 39.3498 125.313 39.6347 125.902 39.9287L125.454 40.8232ZM38.9672 15.668C38.3198 15.8199 37.675 15.9835 37.0333 16.1591L36.7695 15.1945C37.423 15.0157 38.0796 14.8491 38.7388 14.6945L38.9672 15.668ZM106.796 35.724C106.155 35.6779 105.507 35.6432 104.852 35.6206L104.886 34.6212C105.554 34.6443 106.214 34.6796 106.868 34.7266L106.796 35.724ZM128.869 42.6979C128.317 42.3664 127.754 42.0428 127.18 41.7278L127.661 40.8513C128.246 41.1724 128.82 41.5024 129.384 41.8403L128.869 42.6979ZM102.9 35.5889C102.257 35.5901 101.606 35.6029 100.949 35.6275L100.912 34.6282C101.581 34.6031 102.243 34.5901 102.898 34.5889L102.9 35.5889ZM96.3743 35.0114C96.0354 34.4411 95.6653 33.8625 95.2619 33.2766L96.0856 32.7095C96.5014 33.3134 96.8835 33.9108 97.2339 34.5005L96.3743 35.0114ZM132.133 44.8254C131.607 44.4539 131.07 44.0888 130.521 43.7312L131.067 42.8935C131.626 43.258 132.174 43.63 132.71 44.0085L132.133 44.8254ZM35.1195 16.7212C34.4855 16.9204 33.8551 17.1317 33.2286 17.3552L32.8926 16.4133C33.5312 16.1855 34.1737 15.9702 34.8198 15.7672L35.1195 16.7212ZM99.009 35.7341C98.6836 35.7576 98.3566 35.784 98.0281 35.8133L98.0096 35.815L97.9911 35.8152C97.6646 35.8202 97.323 35.8314 96.9691 35.8497L96.9177 34.851C97.2767 34.8325 97.6241 34.8209 97.9575 34.8156C98.2855 34.7864 98.612 34.7601 98.9371 34.7367L99.009 35.7341ZM135.233 47.1873C134.735 46.779 134.226 46.3757 133.704 45.9782L134.311 45.1829C134.842 45.5877 135.361 45.9985 135.867 46.4143L135.233 47.1873ZM94.9186 36.0228C94.2568 36.0999 93.5738 36.2 92.882 36.3256L92.7033 35.3417C93.417 35.2121 94.121 35.109 94.8028 35.0295L94.9186 36.0228ZM138.156 49.7648C137.69 49.3233 137.21 48.8847 136.717 48.4503L137.379 47.7002C137.88 48.1426 138.369 48.5891 138.843 49.0386L138.156 49.7648ZM98.2036 38.691C97.9589 38.0807 97.6792 37.4555 97.361 36.8173L98.2558 36.3711C98.5861 37.0333 98.8769 37.6832 99.1318 38.319L98.2036 38.691ZM31.3634 18.0618C30.7474 18.3091 30.1358 18.5687 29.5291 18.8408L29.1199 17.9284C29.7389 17.6508 30.3627 17.386 30.9909 17.1338L31.3634 18.0618ZM90.8744 36.7612C90.2125 36.9296 89.5544 37.1233 88.9104 37.3443L88.5858 36.3984C89.2578 36.1678 89.9422 35.9666 90.6279 35.7921L90.8744 36.7612ZM140.89 52.5397C140.457 52.0684 140.01 51.5976 139.548 51.1288L140.26 50.4269C140.73 50.9042 141.186 51.3834 141.627 51.8631L140.89 52.5397ZM27.7277 19.6929C27.1338 19.9888 26.5452 20.2973 25.9622 20.6184L25.4797 19.7426C26.0748 19.4147 26.6757 19.0998 27.2818 18.7979L27.7277 19.6929ZM99.3705 42.6098C99.2479 41.9739 99.0866 41.3107 98.8806 40.6234L99.8385 40.3363C100.054 41.0555 100.223 41.7513 100.352 42.4205L99.3705 42.6098ZM143.428 55.5032C143.03 55.0036 142.615 54.5013 142.184 53.998L142.944 53.3475C143.382 53.8599 143.804 54.3713 144.21 54.8801L143.428 55.5032ZM87.0168 38.0985C86.3912 38.3866 85.7937 38.7056 85.2354 39.0576L84.7021 38.2117C85.3017 37.8336 85.9382 37.4942 86.5985 37.1902L87.0168 38.0985ZM24.2375 21.6163C23.6715 21.9598 23.1115 22.316 22.558 22.6851L22.0033 21.853C22.5687 21.476 23.1406 21.1122 23.7186 20.7614L24.2375 21.6163ZM145.742 58.6377C145.386 58.1154 145.01 57.5857 144.615 57.0507L145.419 56.4566C145.822 57.0017 146.205 57.5417 146.568 58.0744L145.742 58.6377ZM99.6654 46.6544C99.7025 46.0337 99.6994 45.356 99.6439 44.628L100.641 44.552C100.7 45.324 100.703 46.047 100.664 46.714L99.6654 46.6544ZM83.6384 40.2599C83.1402 40.7121 82.7011 41.2032 82.3329 41.7358L81.5104 41.1671C81.9266 40.565 82.4179 40.0172 82.9664 39.5194L83.6384 40.2599ZM147.8 61.9421C147.494 61.3981 147.162 60.8382 146.805 60.2656L147.653 59.7362C148.018 60.3212 148.358 60.8939 148.672 61.4512L147.8 61.9421ZM20.9245 23.8254C20.3895 24.2163 19.8612 24.6199 19.3401 25.0364L18.7157 24.2553C19.2482 23.8297 19.788 23.4173 20.3346 23.018L20.9245 23.8254ZM149.125 64.5215C148.995 64.2391 148.856 63.9493 148.709 63.6528L149.604 63.2076C149.756 63.5128 149.899 63.8117 150.033 64.1036L149.125 64.5215ZM99.0985 49.5433C99.2009 49.2773 99.2959 48.9745 99.3785 48.6367L100.35 48.8743C100.255 49.2619 100.144 49.616 100.02 49.9334L100.009 49.9601L99.9959 49.9854C99.8383 50.2831 99.6764 50.5667 99.5103 50.8365L98.6587 50.3125C98.8082 50.0695 98.9549 49.8132 99.0985 49.5433ZM81.449 43.4706C81.2447 44.0607 81.1135 44.6958 81.0685 45.3801L80.0707 45.3144C80.1215 44.5425 80.2701 43.8194 80.504 43.1435L81.449 43.4706ZM17.814 26.3113C17.3163 26.7458 16.8257 27.1929 16.3428 27.6528L15.6532 26.9287C16.1466 26.4588 16.6478 26.0019 17.1564 25.5579L17.814 26.3113ZM96.2923 52.9916C96.7385 52.6616 97.1741 52.2593 97.5947 51.7749L98.3498 52.4306C97.8846 52.9663 97.3957 53.4193 96.887 53.7956L96.2923 52.9916ZM81.3362 48.2148C81.2664 47.9211 81.2101 47.6347 81.1665 47.3555L80.1785 47.5096C80.2329 47.8582 80.305 48.2146 80.3956 48.579L80.4262 48.7022L80.5119 48.7959C80.7206 49.0241 80.9428 49.2573 81.1771 49.493L81.8864 48.7881C81.6938 48.5943 81.5101 48.4028 81.3362 48.2148ZM14.9277 29.0606C14.4709 29.5352 14.0217 30.0222 13.5805 30.5218L12.8309 29.8598C13.2816 29.3495 13.7405 28.852 14.2073 28.3671L14.9277 29.0606ZM83.2431 50.0529C83.6992 50.4472 84.1838 50.8373 84.6908 51.2118L84.0966 52.0161C83.5678 51.6255 83.0633 51.2193 82.5891 50.8093L83.2431 50.0529ZM93.0581 54.2455C93.6372 54.188 94.2066 54.0572 94.7611 53.8416L95.1235 54.7736C94.4797 55.0239 93.8212 55.1747 93.1568 55.2406L93.0581 54.2455ZM86.2228 52.2467C86.7488 52.569 87.2889 52.8657 87.8377 53.1271L87.4076 54.0299C86.8239 53.7518 86.253 53.438 85.7004 53.0994L86.2228 52.2467ZM89.5311 53.8044C90.117 53.9921 90.7038 54.1297 91.286 54.2072L91.1539 55.1985C90.5059 55.1121 89.8609 54.9601 89.226 54.7567L89.5311 53.8044ZM12.2948 32.0416C11.8782 32.5558 11.4697 33.0822 11.0696 33.6209L10.2668 33.0247C10.6753 32.4747 11.0924 31.9372 11.5178 31.4121L12.2948 32.0416ZM9.91844 35.2395C9.7307 35.5152 9.54506 35.794 9.36154 36.0757L8.5236 35.53C8.71083 35.2425 8.90026 34.9581 9.09183 34.6767L9.91844 35.2395Z" fill="white"/>
<path d="M3.75568 43.9948L12.9817 38.2029C14.0453 37.5288 13.4541 35.9174 12.2469 36.073L8.09658 36.608L7.56164 32.4577C7.40603 31.2504 5.69736 31.0869 5.31502 32.287L2.05189 42.6801C1.79138 43.6345 2.89883 44.489 3.75568 43.9948Z" fill="#FFD117"/>
</svg>
